<svg data-v-423bf9ae="" xmlns="http://www.w3.org/2000/svg" viewBox="0 0 390.71964806415554 60" class="font"><!----><!----><!----><g data-v-423bf9ae="" id="951098f8-6a11-4da8-96df-a06525038650" fill="black" transform="matrix(4.4977510729908285,0,0,4.4977510729908285,-1.754125074817921,-6.746626609486242)"><path d="M0.39 10.02L0.39 10.02L1.25 9.50L1.25 9.50Q2.16 11.18 3.35 11.18L3.35 11.18L3.35 11.18Q3.86 11.18 4.31 10.94L4.31 10.94L4.31 10.94Q4.76 10.70 5.00 10.30L5.00 10.30L5.00 10.30Q5.23 9.91 5.23 9.45L5.23 9.45L5.23 9.45Q5.23 8.95 4.89 8.46L4.89 8.46L4.89 8.46Q4.41 7.78 3.14 7.08L3.14 7.08L3.14 7.08Q1.87 6.12 1.57 5.69L1.57 5.69L1.57 5.69Q1.03 4.98 1.03 4.14L1.03 4.14L1.03 4.14Q1.03 3.47 1.35 2.93L1.35 2.93L1.35 2.93Q1.66 2.39 2.24 2.07L2.24 2.07L2.24 2.07Q2.82 1.76 3.49 1.76L3.49 1.76L3.49 1.76Q4.20 1.76 4.83 2.12L4.83 2.12L4.83 2.12Q5.45 2.47 6.15 3.42L6.15 3.42L5.32 4.05L5.32 4.05Q4.75 3.29 4.35 3.05L4.35 3.05L4.35 3.05Q3.94 2.81 3.47 2.81L3.47 2.81L3.47 2.81Q2.86 2.81 2.47 3.18L2.47 3.18L2.47 3.18Q2.08 3.55 2.08 4.09L2.08 4.09L2.08 4.09Q2.08 4.42 2.21 4.74L2.21 4.74L2.21 4.74Q2.35 5.05 2.72 5.41L2.72 5.41L2.72 5.41Q2.92 5.61 4.03 6.43L4.03 6.43L4.03 6.43Q5.35 7.40 5.83 8.03L5.83 8.03L5.83 8.03Q6.32 8.67 6.32 9.43L6.32 9.43L6.32 9.43Q6.32 10.53 5.49 11.35L5.49 11.35L5.49 11.35Q4.65 12.16 3.45 12.16L3.45 12.16L3.45 12.16Q2.52 12.16 1.77 11.67L1.77 11.67L1.77 11.67Q1.02 11.18 0.39 10.02ZM8.08 12.09L8.08 9.18L8.08 7.98L8.08 7.98Q8.20 6.45 8.72 5.74L8.72 5.74L8.72 5.74Q9.15 5.09 9.85 4.71L9.85 4.71L9.85 4.71Q10.31 4.42 11.16 4.40L11.16 4.40L11.16 4.40Q11.70 4.40 12.26 4.60L12.26 4.60L12.26 4.60Q12.82 4.81 13.13 5.15L13.13 5.15L13.13 5.15Q13.44 5.49 13.75 6.17L13.75 6.17L13.75 6.17Q13.92 5.74 14.47 5.15L14.47 5.15L14.47 5.15Q14.74 4.92 15.16 4.70L15.16 4.70L15.16 4.70Q15.45 4.52 16.50 4.40L16.50 4.40L16.50 4.40Q17.27 4.40 17.99 4.79L17.99 4.79L17.99 4.79Q18.71 5.17 19.00 5.88L19.00 5.88L19.00 5.88Q19.29 6.59 19.29 7.99L19.29 7.99L19.29 12.09L18.31 12.09L18.31 7.99L18.31 7.99Q18.31 6.79 18.14 6.34L18.14 6.34L18.14 6.34Q17.96 5.89 17.55 5.61L17.55 5.61L17.55 5.61Q17.13 5.33 16.54 5.33L16.54 5.33L16.54 5.33Q15.44 5.41 14.65 6.41L14.65 6.41L14.65 6.41Q14.34 6.83 14.18 8.29L14.18 8.29L14.18 12.09L13.22 12.09L13.22 8.24L13.22 8.24Q13.22 6.89 12.92 6.40L12.92 6.40L12.92 6.40Q12.62 5.91 12.20 5.62L12.20 5.62L12.20 5.62Q11.79 5.33 11.16 5.33L11.16 5.33L11.16 5.33Q10.49 5.33 10.01 5.67L10.01 5.67L10.01 5.67Q9.53 6.02 9.26 6.70L9.26 6.70L9.26 6.70Q8.98 7.38 9.04 8.91L9.04 8.91L9.04 12.09L8.08 12.09ZM24.86 4.22L24.86 4.22L24.86 4.22Q26.58 4.22 27.73 5.47L27.73 5.47L27.73 5.47Q28.78 6.61 28.78 8.18L28.78 8.18L28.78 8.18Q28.79 12.07 28.78 12.13L28.78 12.13L28.78 12.13Q28.12 12.13 27.76 12.13L27.76 12.13L27.76 12.13Q27.76 12.08 27.76 10.42L27.76 10.42L27.76 10.42Q26.96 11.92 24.86 12.09L24.86 12.09L24.86 12.09Q23.13 12.09 22.04 10.92L22.04 10.92L22.04 10.92Q20.95 9.75 20.95 8.18L20.95 8.18L20.95 8.18Q20.95 6.62 21.98 5.48L21.98 5.48L21.98 5.48Q23.13 4.22 24.86 4.22ZM24.86 5.16L24.86 5.16L24.86 5.16Q23.66 5.16 22.80 6.05L22.80 6.05L22.80 6.05Q21.94 6.94 21.94 8.20L21.94 8.20L21.94 8.20Q21.94 9.01 22.38 9.76L22.38 9.76L22.38 9.76Q22.82 10.51 23.87 11.03L23.87 11.03L23.87 11.03Q26.51 11.62 27.62 8.63L27.62 8.63L27.62 8.63Q27.69 7.68 27.42 6.80L27.42 6.80L27.42 6.80Q27.23 6.41 26.89 6.05L26.89 6.05L26.89 6.05Q26.05 5.16 24.86 5.16ZM30.28 12.07L30.28 8.65L30.28 7.75L30.28 7.75Q30.39 7.08 30.60 6.65L30.60 6.65L30.60 6.65Q31.08 5.48 31.88 4.93L31.88 4.93L31.88 4.93Q32.69 4.38 33.22 4.38L33.22 4.38L33.22 4.38Q33.62 4.38 34.07 4.64L34.07 4.64L33.57 5.45L33.57 5.45Q32.94 5.22 32.31 5.82L32.31 5.82L32.31 5.82Q31.68 6.43 31.45 7.15L31.45 7.15L31.45 7.15Q31.27 7.79 31.27 9.54L31.27 9.54L31.27 12.07L30.28 12.07ZM37.59 11.03L37.59 11.03L37.59 11.03Q36.88 11.41 36.20 11.09L36.20 11.09L36.20 11.09Q35.36 10.45 35.40 9.28L35.40 9.28L35.40 6.10L37.18 6.10L37.18 5.28L35.40 5.28L35.40 1.65L34.43 1.65L34.43 9.44L34.43 9.44Q34.41 10.26 34.80 10.94L34.80 10.94L34.80 10.94Q35.44 12.03 36.55 12.09L36.55 12.09L36.55 12.09Q37.14 12.11 37.89 11.83L37.89 11.83L37.89 11.83Q37.78 11.54 37.59 11.03ZM39.57 12.04L39.57 1.91L41.59 1.91L41.59 1.91Q43.33 1.91 43.93 2.06L43.93 2.06L43.93 2.06Q44.81 2.28 45.36 2.94L45.36 2.94L45.36 2.94Q45.90 3.60 45.90 4.61L45.90 4.61L45.90 4.61Q45.90 5.62 45.37 6.28L45.37 6.28L45.37 6.28Q44.83 6.94 43.89 7.16L43.89 7.16L43.89 7.16Q43.20 7.33 41.31 7.33L41.31 7.33L40.58 7.33L40.58 12.04L39.57 12.04ZM42.38 2.89L40.58 2.89L40.58 6.34L42.31 6.36L42.31 6.36Q43.34 6.36 43.82 6.17L43.82 6.17L43.82 6.17Q44.30 5.98 44.58 5.55L44.58 5.55L44.58 5.55Q44.86 5.13 44.86 4.61L44.86 4.61L44.86 4.61Q44.86 4.09 44.58 3.67L44.58 3.67L44.58 3.67Q44.30 3.25 43.85 3.07L43.85 3.07L43.85 3.07Q43.40 2.89 42.38 2.89L42.38 2.89ZM51.30 4.22L51.30 4.22L51.30 4.22Q53.03 4.22 54.17 5.47L54.17 5.47L54.17 5.47Q55.23 6.61 55.23 8.18L55.23 8.18L55.23 8.18Q55.24 12.07 55.23 12.13L55.23 12.13L55.23 12.13Q54.57 12.13 54.21 12.13L54.21 12.13L54.21 12.13Q54.21 12.08 54.21 10.42L54.21 10.42L54.21 10.42Q53.41 11.92 51.30 12.09L51.30 12.09L51.30 12.09Q49.58 12.09 48.49 10.92L48.49 10.92L48.49 10.92Q47.40 9.75 47.40 8.18L47.40 8.18L47.40 8.18Q47.40 6.62 48.43 5.48L48.43 5.48L48.43 5.48Q49.57 4.22 51.30 4.22ZM51.30 5.16L51.30 5.16L51.30 5.16Q50.11 5.16 49.25 6.05L49.25 6.05L49.25 6.05Q48.38 6.94 48.38 8.20L48.38 8.20L48.38 8.20Q48.38 9.01 48.83 9.76L48.83 9.76L48.83 9.76Q49.27 10.51 50.32 11.03L50.32 11.03L50.32 11.03Q52.96 11.62 54.07 8.63L54.07 8.63L54.07 8.63Q54.13 7.68 53.87 6.80L53.87 6.80L53.87 6.80Q53.68 6.41 53.34 6.05L53.34 6.05L53.34 6.05Q52.50 5.16 51.30 5.16ZM56.73 12.07L56.73 8.65L56.73 7.75L56.73 7.75Q56.84 7.08 57.05 6.65L57.05 6.65L57.05 6.65Q57.52 5.48 58.33 4.93L58.33 4.93L58.33 4.93Q59.14 4.38 59.67 4.38L59.67 4.38L59.67 4.38Q60.07 4.38 60.52 4.64L60.52 4.64L60.02 5.45L60.02 5.45Q59.38 5.22 58.76 5.82L58.76 5.82L58.76 5.82Q58.13 6.43 57.89 7.15L57.89 7.15L57.89 7.15Q57.72 7.79 57.72 9.54L57.72 9.54L57.72 12.07L56.73 12.07ZM61.33 12.09L61.33 1.69L62.30 1.69L62.30 7.61L65.76 4.59L67.18 4.59L64.05 7.44L67.42 12.09L66.06 12.09L63.10 8.05L62.30 8.72L62.30 12.09L61.33 12.09ZM68.75 1.50L68.75 1.50L68.75 1.50Q69.08 1.50 69.31 1.74L69.31 1.74L69.31 1.74Q69.55 1.97 69.55 2.30L69.55 2.30L69.55 2.30Q69.55 2.63 69.31 2.86L69.31 2.86L69.31 2.86Q69.08 3.10 68.75 3.10L68.75 3.10L68.75 3.10Q68.42 3.10 68.19 2.86L68.19 2.86L68.19 2.86Q67.96 2.63 67.96 2.30L67.96 2.30L67.96 2.30Q67.96 1.97 68.19 1.74L68.19 1.74L68.19 1.74Q68.42 1.50 68.75 1.50ZM68.27 12.09L68.27 4.59L69.23 4.59L69.23 12.09L68.27 12.09ZM71.22 12.09L71.22 9.24L71.21 8.44L71.21 8.44Q71.19 7.85 71.26 7.44L71.26 7.44L71.26 7.44Q71.41 6.15 71.91 5.55L71.91 5.55L71.91 5.55Q72.41 5.02 72.92 4.74L72.92 4.74L72.92 4.74Q73.77 4.38 74.85 4.40L74.85 4.40L74.85 4.40Q75.70 4.40 76.42 4.82L76.42 4.82L76.42 4.82Q77.14 5.25 77.45 5.97L77.45 5.97L77.45 5.97Q77.76 6.69 77.76 8.23L77.76 8.23L77.76 12.09L76.80 12.09L76.80 8.51L76.80 8.51Q76.80 7.21 76.69 6.77L76.69 6.77L76.69 6.77Q76.52 6.03 76.02 5.72L76.02 5.72L76.02 5.72Q75.51 5.41 74.52 5.41L74.52 5.41L74.52 5.41Q73.64 5.41 72.96 5.91L72.96 5.91L72.96 5.91Q72.28 6.42 72.32 7.29L72.32 7.29L72.32 7.29Q72.19 7.85 72.19 9.34L72.19 9.34L72.19 12.09L71.22 12.09ZM87.25 10.38L87.25 10.38L87.25 10.38Q87.25 11.96 86.97 12.69L86.97 12.69L86.97 12.69Q86.59 13.73 85.65 14.28L85.65 14.28L85.65 14.28Q84.71 14.84 83.40 14.84L83.40 14.84L83.40 14.84Q82.43 14.84 81.66 14.57L81.66 14.57L81.66 14.57Q80.90 14.29 80.41 13.84L80.41 13.84L80.41 13.84Q79.93 13.38 79.52 12.50L79.52 12.50L80.57 12.50L80.57 12.50Q81.00 13.24 81.67 13.60L81.67 13.60L81.67 13.60Q82.35 13.95 83.35 13.95L83.35 13.95L83.35 13.95Q84.33 13.95 85.02 13.58L85.02 13.58L85.02 13.58Q85.70 13.21 85.98 12.66L85.98 12.66L85.98 12.66Q86.27 12.11 86.27 10.86L86.27 10.86L86.27 10.48L86.27 10.48Q85.73 11.17 84.94 11.54L84.94 11.54L84.94 11.54Q84.15 11.91 83.28 11.91L83.28 11.91L83.28 11.91Q82.24 11.91 81.33 11.40L81.33 11.40L81.33 11.40Q80.42 10.88 79.92 10.01L79.92 10.01L79.92 10.01Q79.43 9.14 79.43 8.10L79.43 8.10L79.43 8.10Q79.43 7.06 79.94 6.16L79.94 6.16L79.94 6.16Q80.46 5.26 81.38 4.74L81.38 4.74L81.38 4.74Q82.29 4.22 83.30 4.22L83.30 4.22L83.30 4.22Q84.14 4.22 84.83 4.48L84.83 4.48L84.83 4.48Q85.42 4.69 86.21 5.29L86.21 5.29L86.21 5.29Q86.88 5.84 87.26 7.40L87.26 7.40L87.26 7.40Q87.25 7.61 87.25 10.38ZM83.42 5.15L83.42 5.15L83.42 5.15Q82.60 5.15 81.90 5.54L81.90 5.54L81.90 5.54Q81.20 5.94 80.80 6.64L80.80 6.64L80.80 6.64Q80.40 7.33 80.40 8.15L80.40 8.15L80.40 8.15Q80.40 9.39 81.22 10.19L81.22 10.19L81.22 10.19Q82.05 11.00 83.36 11.00L83.36 11.00L83.36 11.00Q84.70 11.00 85.51 10.20L85.51 10.20L85.51 10.20Q86.32 9.40 86.32 8.09L86.32 8.09L86.32 8.09Q86.32 7.25 85.94 6.58L85.94 6.58L85.94 6.58Q85.57 5.92 84.89 5.53L84.89 5.53L84.89 5.53Q84.21 5.15 83.42 5.15Z"></path></g><!----><!----></svg>